<svg width="32" height="32" fill="none" xmlns="http://www.w3.org/2000/svg"><path fill-rule="evenodd" clip-rule="evenodd" d="M25.545 16.603L14.091 23l.139-.346a3.182 3.182 0 00-.045-2.47l-.094-.212c3.52-1.32 3.511-2.475 3.511-4.089 0-1.614.011-2.769-3.51-4.078.403-.77.45-1.68.126-2.487L14.091 9l11.454 6.294v1.31zm-7.437 1.79l4.19-2.487-4.19-2.433c.425.92.64 1.702.64 2.433 0 .72-.215 1.58-.64 2.486z" fill="#A7B6E3"/><path d="M6.455 15.363l11.454-.636v2.545l-11.454-.636.033-.068c.18-.358.18-.78 0-1.138l-.033-.067z" fill="#A7B6E3"/></svg>