<svg width="32" height="32" viewBox="0 0 32 32" fill="none" xmlns="http://www.w3.org/2000/svg">
<path fill-rule="evenodd" clip-rule="evenodd" d="M6.45459 16.6034L17.9088 23L17.7702 22.6536C17.4519 21.8578 17.4681 20.9672 17.8152 20.1835L17.9088 19.9722C14.3887 18.6521 14.3977 17.4972 14.3977 15.8832C14.3977 14.2693 14.3867 13.1144 17.9088 11.8054C17.5049 11.0346 17.4585 10.1258 17.7816 9.31787L17.9088 9L6.45459 15.2939L6.45459 16.6034ZM13.8921 18.3925L9.70144 15.9058L13.8921 13.4726C13.4668 14.3924 13.2527 15.1751 13.2527 15.9058C13.2527 16.6254 13.4668 17.4854 13.8921 18.3925Z" fill="#A7B6E3"/>
<path d="M25.5454 15.3629L14.0912 14.7266V17.272L25.5454 16.6357L25.5118 16.5684C25.3327 16.2102 25.3327 15.7884 25.5118 15.4301L25.5454 15.3629Z" fill="#A7B6E3"/>
</svg>
