<svg width="32" height="32" viewBox="0 0 32 32" fill="none" xmlns="http://www.w3.org/2000/svg">
<path fill-rule="evenodd" clip-rule="evenodd" d="M25.5454 16.6034L14.0912 23L14.2298 22.6536C14.5481 21.8578 14.5319 20.9672 14.1848 20.1835L14.0912 19.9722C17.6113 18.6521 17.6023 17.4972 17.6023 15.8832C17.6023 14.2693 17.6133 13.1144 14.0912 11.8054C14.4951 11.0346 14.5415 10.1258 14.2184 9.31787L14.0912 9L25.5454 15.2939L25.5454 16.6034ZM18.1079 18.3925L22.2986 15.9058L18.1079 13.4726C18.5332 14.3924 18.7473 15.1751 18.7473 15.9058C18.7473 16.6254 18.5332 17.4854 18.1079 18.3925Z" fill="#A7B6E3"/>
<path d="M6.45459 15.3629L17.9088 14.7266V17.272L6.45459 16.6357L6.48819 16.5684C6.66733 16.2102 6.66733 15.7884 6.48819 15.4301L6.45459 15.3629Z" fill="#A7B6E3"/>
</svg>
